<?xml version="1.0" encoding="iso-8859-1"?>
<!-- Generator: Adobe Illustrator 19.0.0, SVG Export Plug-In . SVG Version: 6.00 Build 0)  -->
<svg version="1.1" id="Capa_1" xmlns="http://www.w3.org/2000/svg" xmlns:xlink="http://www.w3.org/1999/xlink" x="0px" y="0px"
	 viewBox="0 0 512 512" style="enable-background:new 0 0 512 512;" xml:space="preserve">
<g>
	<g>
		<circle cx="359.49" cy="135" r="15"/>
	</g>
</g>
<g>
	<g>
		<path d="M481.298,248.922L453.055,172.1c25.013-12.471,41.436-38.174,41.436-67.1c0-8.284-6.716-15-15-15h-60.015
			c-4.703-6.257-10.329-11.681-16.615-16.136C411.838,35.963,382.931,0,344.491,0c-21.95,0-41.787,12.011-52.25,30.488
			c-35.752-4.65-67.75,23.252-67.75,59.512c0,33.084,26.916,60,60,60v77c0,8.271-6.729,15-15,15c-5.273,0-126.196,0-131.459,0
			c-5.718,0-10.859-3.177-13.417-8.292l-11.459-22.918C104.277,193.032,86.428,182,66.573,182
			c-28.718,0-52.082,23.364-52.082,52.082V257c0,62.71,17.877,125.345,49.048,171.844C97.68,479.777,147.668,512,209.491,512h89.077
			c67.331,0,131.32-23.814,168.802-77.797C504.72,380.408,504.924,312.268,481.298,248.922z M461.938,120
			c-3.477,9.881-10.328,18.254-19.348,23.636L433.9,120H461.938z M254.491,90c0-21.227,21.403-35.692,41.048-27.905
			c8.318,3.3,17.656-1.388,20.001-10.004C319.081,39.084,330.986,30,344.491,30c16.936,0,30.804,14.155,29.956,31.522
			C369.571,60.523,364.564,60,359.491,60c-36.197,0-66.486,25.776-73.479,59.936C268.579,120.802,254.491,106.885,254.491,90z
			 M442.727,417.093C413.665,458.949,362.469,482,298.568,482h-89.077c-61.329,0-99.669-37.99-121.033-69.86
			C60.516,370.458,44.491,313.912,44.491,257v-22.918c0-12.176,9.906-22.082,22.082-22.082c8.418,0,15.986,4.677,19.75,12.207
			l11.459,22.918c3.259,6.518,7.926,11.973,13.521,16.108c-4.312,6.902-6.813,15.046-6.813,23.767
			c0,20.723,14.085,38.209,33.181,43.414c-2.045,5.137-3.181,10.729-3.181,16.586c0,20.723,14.085,38.209,33.181,43.414
			c-2.045,5.136-3.181,10.729-3.181,16.586c0,24.813,20.187,45,45,45h30c74.439,0,135-60.561,135-135c0-8.284-6.716-15-15-15
			s-15,6.716-15,15c0,57.897-47.103,105-105,105h-30c-8.271,0-15-6.729-15-15s6.729-15,15-15h30c8.284,0,15-6.716,15-15
			s-6.716-15-15-15c-6.359,0-53.641,0-60,0c-8.271,0-15-6.729-15-15s6.729-15,15-15c6.359,0,53.641,0,60,0c8.284,0,15-6.716,15-15
			s-6.716-15-15-15c-9.71,0-80.502,0-90,0c-8.271,0-15-6.729-15-15s6.729-15,15-15c5.273,0,114.737,0,120,0
			c24.813,0,45-20.187,45-45v-92c0-24.813,20.187-45,45-45c16.014,0,30.945,8.623,38.966,22.505
			c4.396,9.239-2.534-8.864,54.708,146.836C475.495,319.212,471.788,375.237,442.727,417.093z"/>
	</g>
</g>
<g>
</g>
<g>
</g>
<g>
</g>
<g>
</g>
<g>
</g>
<g>
</g>
<g>
</g>
<g>
</g>
<g>
</g>
<g>
</g>
<g>
</g>
<g>
</g>
<g>
</g>
<g>
</g>
<g>
</g>
</svg>
